# Blender 4.5.10 LTS
# www.blender.org
mtllib 카타나.mtl
o Katana
v 7.000000 0.000000 0.000000
v -7.000000 0.000000 0.000000
v 6.152216 16.850845 0.000000
v -6.625561 16.850845 0.000000
v 4.831275 33.688396 0.000000
v -6.724281 33.688396 0.000000
v 3.037734 50.499374 0.000000
v -7.295599 50.499374 0.000000
v 0.772528 67.270508 0.000000
v -8.338583 67.270508 0.000000
v -1.963038 83.988571 0.000000
v -9.851927 83.988571 0.000000
v -5.167289 100.640381 0.000000
v -11.833956 100.640381 0.000000
v -8.838179 117.212791 0.000000
v -14.282623 117.212791 0.000000
v -12.973293 133.692734 0.000000
v -17.195515 133.692734 0.000000
v -17.569853 150.067200 0.000000
v -20.569853 150.067200 0.000000
v -25.787106 170.000000 0.000000
v 7.000000 0.000000 -2.600000
v -7.000000 0.000000 -2.600000
v 6.152216 16.850845 -2.600000
v -6.625561 16.850845 -2.600000
v 4.831275 33.688396 -2.600000
v -6.724281 33.688396 -2.600000
v 3.037734 50.499374 -2.600000
v -7.295599 50.499374 -2.600000
v 0.772528 67.270508 -2.600000
v -8.338583 67.270508 -2.600000
v -1.963038 83.988571 -2.600000
v -9.851927 83.988571 -2.600000
v -5.167289 100.640381 -2.600000
v -11.833956 100.640381 -2.600000
v -8.838179 117.212791 -2.600000
v -14.282623 117.212791 -2.600000
v -12.973293 133.692734 -2.600000
v -17.195515 133.692734 -2.600000
v -17.569853 150.067200 -2.600000
v -20.569853 150.067200 -2.600000
v -25.787106 170.000000 -2.600000
v 0.000000 13.000006 -1.499953
v 0.000000 12.999994 1.500047
v 2.536174 12.750214 -1.499954
v 2.536174 12.750202 1.500046
v 4.974885 12.010439 -1.499956
v 4.974885 12.010427 1.500044
v 7.222413 10.809111 -1.499961
v 7.222413 10.809099 1.500039
v 9.192388 9.192393 -1.499967
v 9.192388 9.192382 1.500033
v 10.809105 7.222418 -1.499974
v 10.809105 7.222408 1.500026
v 12.010433 4.974890 -1.499982
v 12.010433 4.974880 1.500018
v 12.750208 2.536180 -1.499991
v 12.750208 2.536169 1.500009
v 13.000000 0.000005 -1.500000
v 13.000000 -0.000005 1.500000
v 12.750208 -2.536169 -1.500009
v 12.750208 -2.536180 1.499991
v 12.010433 -4.974880 -1.500018
v 12.010433 -4.974890 1.499982
v 10.809105 -7.222408 -1.500026
v 10.809105 -7.222418 1.499974
v 9.192388 -9.192382 -1.500033
v 9.192388 -9.192393 1.499967
v 7.222413 -10.809099 -1.500039
v 7.222413 -10.809111 1.499961
v 4.974885 -12.010427 -1.500044
v 4.974885 -12.010439 1.499956
v 2.536174 -12.750202 -1.500046
v 2.536174 -12.750214 1.499954
v 0.000000 -12.999994 -1.500047
v 0.000000 -13.000006 1.499953
v -2.536174 -12.750202 -1.500046
v -2.536174 -12.750214 1.499954
v -4.974885 -12.010427 -1.500044
v -4.974885 -12.010439 1.499956
v -7.222413 -10.809099 -1.500039
v -7.222413 -10.809111 1.499961
v -9.192388 -9.192382 -1.500033
v -9.192388 -9.192393 1.499967
v -10.809105 -7.222408 -1.500026
v -10.809105 -7.222418 1.499974
v -12.010433 -4.974880 -1.500018
v -12.010433 -4.974890 1.499982
v -12.750208 -2.536169 -1.500009
v -12.750208 -2.536180 1.499991
v -13.000000 0.000005 -1.500000
v -13.000000 -0.000005 1.500000
v -12.750208 2.536180 -1.499991
v -12.750208 2.536169 1.500009
v -12.010433 4.974890 -1.499982
v -12.010433 4.974880 1.500018
v -10.809105 7.222418 -1.499974
v -10.809105 7.222408 1.500026
v -9.192388 9.192393 -1.499967
v -9.192388 9.192382 1.500033
v -7.222413 10.809111 -1.499961
v -7.222413 10.809099 1.500039
v -4.974885 12.010439 -1.499956
v -4.974885 12.010427 1.500044
v -2.536174 12.750214 -1.499954
v -2.536174 12.750202 1.500046
v 0.000000 -55.000000 -5.000000
v 0.000000 0.000000 -5.000000
v 3.535534 -55.000000 -3.535534
v 3.535534 0.000000 -3.535534
v 5.000000 -55.000000 0.000000
v 5.000000 0.000000 0.000000
v 3.535534 -55.000000 3.535534
v 3.535534 0.000000 3.535534
v 0.000000 -55.000000 5.000000
v 0.000000 0.000000 5.000000
v -3.535534 -55.000000 3.535534
v -3.535534 0.000000 3.535534
v -5.000000 -55.000000 0.000000
v -5.000000 0.000000 0.000000
v -3.535534 -55.000000 -3.535534
v -3.535534 0.000000 -3.535534
v 0.000000 -49.999996 -1.499978
v 0.000000 -50.000004 1.500022
v 1.170542 -50.115284 -1.499979
v 1.170542 -50.115295 1.500021
v 2.296101 -50.456718 -1.499980
v 2.296101 -50.456730 1.500020
v 3.333421 -51.011177 -1.499982
v 3.333421 -51.011189 1.500018
v 4.242640 -51.757355 -1.499985
v 4.242640 -51.757366 1.500015
v 4.988818 -52.666573 -1.499988
v 4.988818 -52.666584 1.500012
v 5.543277 -53.703896 -1.499992
v 5.543277 -53.703903 1.500008
v 5.884711 -54.829453 -1.499996
v 5.884711 -54.829464 1.500004
v 6.000000 -55.999996 -1.500000
v 6.000000 -56.000004 1.500000
v 5.884711 -57.170536 -1.500004
v 5.884711 -57.170547 1.499996
v 5.543277 -58.296097 -1.500008
v 5.543277 -58.296104 1.499992
v 4.988818 -59.333416 -1.500012
v 4.988818 -59.333427 1.499988
v 4.242640 -60.242634 -1.500015
v 4.242640 -60.242645 1.499985
v 3.333421 -60.988811 -1.500018
v 3.333421 -60.988823 1.499982
v 2.296101 -61.543270 -1.500020
v 2.296101 -61.543282 1.499980
v 1.170542 -61.884705 -1.500021
v 1.170542 -61.884716 1.499979
v 0.000000 -61.999996 -1.500022
v 0.000000 -62.000004 1.499978
v -1.170542 -61.884705 -1.500021
v -1.170542 -61.884716 1.499979
v -2.296101 -61.543270 -1.500020
v -2.296101 -61.543282 1.499980
v -3.333421 -60.988811 -1.500018
v -3.333421 -60.988823 1.499982
v -4.242640 -60.242634 -1.500015
v -4.242640 -60.242645 1.499985
v -4.988818 -59.333416 -1.500012
v -4.988818 -59.333427 1.499988
v -5.543277 -58.296097 -1.500008
v -5.543277 -58.296104 1.499992
v -5.884711 -57.170536 -1.500004
v -5.884711 -57.170547 1.499996
v -6.000000 -55.999996 -1.500000
v -6.000000 -56.000004 1.500000
v -5.884711 -54.829453 -1.499996
v -5.884711 -54.829464 1.500004
v -5.543277 -53.703896 -1.499992
v -5.543277 -53.703903 1.500008
v -4.988818 -52.666573 -1.499988
v -4.988818 -52.666584 1.500012
v -4.242640 -51.757355 -1.499985
v -4.242640 -51.757366 1.500015
v -3.333421 -51.011177 -1.499982
v -3.333421 -51.011189 1.500018
v -2.296101 -50.456718 -1.499980
v -2.296101 -50.456730 1.500020
v -1.170542 -50.115284 -1.499979
v -1.170542 -50.115295 1.500021
vn -0.0000 -0.0000 1.0000
vn -0.0000 -0.0000 -1.0000
vn -0.0000 -1.0000 -0.0000
vn 0.9987 0.0502 -0.0000
vn -0.9998 0.0222 -0.0000
vn 0.9969 0.0782 -0.0000
vn -1.0000 -0.0059 -0.0000
vn 0.9944 0.1061 -0.0000
vn -0.9994 -0.0340 -0.0000
vn 0.9910 0.1339 -0.0000
vn -0.9981 -0.0621 -0.0000
vn 0.9869 0.1615 -0.0000
vn -0.9959 -0.0902 -0.0000
vn 0.9820 0.1890 -0.0000
vn -0.9930 -0.1182 -0.0000
vn 0.9763 0.2163 -0.0000
vn -0.9893 -0.1462 -0.0000
vn 0.9699 0.2434 -0.0000
vn -0.9847 -0.1741 -0.0000
vn 0.9628 0.2703 -0.0000
vn -0.9794 -0.2018 -0.0000
vn 0.9245 0.3811 -0.0000
vn -0.9674 -0.2532 -0.0000
vn 0.0980 0.9952 -0.0000
vn 0.2903 0.9569 -0.0000
vn 0.4714 0.8819 -0.0000
vn 0.6344 0.7730 -0.0000
vn 0.7730 0.6344 -0.0000
vn 0.8819 0.4714 -0.0000
vn 0.9569 0.2903 -0.0000
vn 0.9952 0.0980 -0.0000
vn 0.9952 -0.0980 -0.0000
vn 0.9569 -0.2903 -0.0000
vn 0.8819 -0.4714 -0.0000
vn 0.7730 -0.6344 -0.0000
vn 0.6344 -0.7730 -0.0000
vn 0.4714 -0.8819 -0.0000
vn 0.2903 -0.9569 -0.0000
vn 0.0980 -0.9952 -0.0000
vn -0.0980 -0.9952 -0.0000
vn -0.2903 -0.9569 -0.0000
vn -0.4714 -0.8819 -0.0000
vn -0.6344 -0.7730 -0.0000
vn -0.7730 -0.6344 -0.0000
vn -0.8819 -0.4714 -0.0000
vn -0.9569 -0.2903 -0.0000
vn -0.9952 -0.0980 -0.0000
vn -0.9952 0.0980 -0.0000
vn -0.9569 0.2903 -0.0000
vn -0.8819 0.4714 -0.0000
vn -0.7730 0.6344 -0.0000
vn -0.6344 0.7730 -0.0000
vn -0.4714 0.8819 -0.0000
vn -0.2903 0.9569 -0.0000
vn -0.0980 0.9952 -0.0000
vn 0.3827 -0.0000 -0.9239
vn 0.9239 -0.0000 -0.3827
vn 0.9239 -0.0000 0.3827
vn 0.3827 -0.0000 0.9239
vn -0.3827 -0.0000 0.9239
vn -0.9239 -0.0000 0.3827
vn -0.0000 1.0000 -0.0000
vn -0.9239 -0.0000 -0.3827
vn -0.3827 -0.0000 -0.9239
vt 0.000000 0.000000
vt 1.000000 0.500000
vt 0.968750 1.000000
vt 0.968750 0.500000
vt 0.937500 0.500000
vt 0.937500 1.000000
vt 0.906250 0.500000
vt 0.906250 1.000000
vt 0.875000 0.500000
vt 0.875000 1.000000
vt 0.843750 0.500000
vt 0.843750 1.000000
vt 0.812500 0.500000
vt 0.812500 1.000000
vt 0.781250 0.500000
vt 0.781250 1.000000
vt 0.750000 0.500000
vt 0.718750 1.000000
vt 0.718750 0.500000
vt 0.687500 1.000000
vt 0.687500 0.500000
vt 0.656250 0.500000
vt 0.656250 1.000000
vt 0.625000 0.500000
vt 0.625000 1.000000
vt 0.593750 0.500000
vt 0.593750 1.000000
vt 0.562500 0.500000
vt 0.562500 1.000000
vt 0.531250 0.500000
vt 0.500000 1.000000
vt 0.500000 0.500000
vt 0.468750 0.500000
vt 0.468750 1.000000
vt 0.437500 0.500000
vt 0.406250 1.000000
vt 0.406250 0.500000
vt 0.375000 1.000000
vt 0.375000 0.500000
vt 0.343750 0.500000
vt 0.343750 1.000000
vt 0.312500 0.500000
vt 0.312500 1.000000
vt 0.281250 0.500000
vt 0.281250 1.000000
vt 0.250000 0.500000
vt 0.250000 1.000000
vt 0.218750 0.500000
vt 0.218750 1.000000
vt 0.187500 0.500000
vt 0.187500 1.000000
vt 0.156250 0.500000
vt 0.156250 1.000000
vt 0.125000 0.500000
vt 0.093750 1.000000
vt 0.093750 0.500000
vt 0.062500 1.000000
vt 0.062500 0.500000
vt 0.158156 0.028269
vt 0.471731 0.158156
vt 0.341844 0.471731
vt 0.031250 0.500000
vt 0.031250 1.000000
vt 0.000000 0.500000
vt 0.796822 0.014612
vt 0.514612 0.203178
vt 0.703178 0.485388
vt 1.000000 1.000000
vt 0.750000 1.000000
vt 0.010000 0.250000
vt 0.250000 0.010000
vt 0.490000 0.250000
vt 0.125000 1.000000
vt 0.919706 0.080294
vt 0.580294 0.080294
vt 0.580294 0.419706
vt 0.531250 1.000000
vt 0.158156 0.028269
vt 0.796822 0.014612
vt 0.437500 1.000000
vt 0.296822 0.485388
vt 0.250000 0.490000
vt 0.203178 0.485388
vt 0.158156 0.471731
vt 0.116663 0.449553
vt 0.080294 0.419706
vt 0.050447 0.383337
vt 0.028269 0.341844
vt 0.014612 0.296822
vt 0.010000 0.250000
vt 0.014612 0.203178
vt 0.028269 0.158156
vt 0.050447 0.116663
vt 0.080294 0.080294
vt 0.116663 0.050447
vt 0.203178 0.014612
vt 0.250000 0.010000
vt 0.296822 0.014612
vt 0.341844 0.028269
vt 0.383337 0.050447
vt 0.419706 0.080294
vt 0.449553 0.116663
vt 0.485388 0.203178
vt 0.485388 0.296822
vt 0.471731 0.341844
vt 0.449553 0.383337
vt 0.419706 0.419706
vt 0.383337 0.449553
vt 0.000000 1.000000
vt 0.750000 0.490000
vt 0.796822 0.485388
vt 0.841844 0.471731
vt 0.883337 0.449553
vt 0.919706 0.419706
vt 0.949553 0.383337
vt 0.971731 0.341844
vt 0.985388 0.296822
vt 0.990000 0.250000
vt 0.985388 0.203178
vt 0.971731 0.158156
vt 0.949553 0.116663
vt 0.919706 0.080294
vt 0.883337 0.050447
vt 0.841844 0.028269
vt 0.750000 0.010000
vt 0.703178 0.014612
vt 0.658156 0.028269
vt 0.616663 0.050447
vt 0.580294 0.080294
vt 0.550447 0.116663
vt 0.528269 0.158156
vt 0.510000 0.250000
vt 0.514612 0.296822
vt 0.528269 0.341844
vt 0.550447 0.383337
vt 0.616663 0.449553
vt 0.658156 0.471731
vt 0.080294 0.419706
vt 0.080294 0.080294
vt 0.419706 0.080294
vt 0.750000 0.010000
vt 0.028269 0.341844
vt 0.014612 0.296822
vt 0.014612 0.203178
vt 0.028269 0.158156
vt 0.203178 0.014612
vt 0.296822 0.014612
vt 0.341844 0.028269
vt 0.841844 0.028269
vt 0.703178 0.014612
vt 0.658156 0.028269
s 0
usemtl katana_blade_steel
f 3/1/1 2/1/1 1/1/1
f 5/1/1 4/1/1 3/1/1
f 7/1/1 6/1/1 5/1/1
f 9/1/1 8/1/1 7/1/1
f 11/1/1 10/1/1 9/1/1
f 13/1/1 12/1/1 11/1/1
f 15/1/1 14/1/1 13/1/1
f 17/1/1 16/1/1 15/1/1
f 19/1/1 18/1/1 17/1/1
f 19/1/1 21/1/1 20/1/1
f 23/1/2 24/1/2 22/1/2
f 25/1/2 26/1/2 24/1/2
f 27/1/2 28/1/2 26/1/2
f 29/1/2 30/1/2 28/1/2
f 31/1/2 32/1/2 30/1/2
f 33/1/2 34/1/2 32/1/2
f 35/1/2 36/1/2 34/1/2
f 37/1/2 38/1/2 36/1/2
f 39/1/2 40/1/2 38/1/2
f 40/1/2 41/1/2 42/1/2
f 2/1/3 22/1/3 1/1/3
f 1/1/4 24/1/4 3/1/4
f 4/1/5 23/1/5 2/1/5
f 3/1/6 26/1/6 5/1/6
f 6/1/7 25/1/7 4/1/7
f 5/1/8 28/1/8 7/1/8
f 8/1/9 27/1/9 6/1/9
f 7/1/10 30/1/10 9/1/10
f 10/1/11 29/1/11 8/1/11
f 9/1/12 32/1/12 11/1/12
f 12/1/13 31/1/13 10/1/13
f 11/1/14 34/1/14 13/1/14
f 14/1/15 33/1/15 12/1/15
f 13/1/16 36/1/16 15/1/16
f 16/1/17 35/1/17 14/1/17
f 15/1/18 38/1/18 17/1/18
f 18/1/19 37/1/19 16/1/19
f 17/1/20 40/1/20 19/1/20
f 20/1/21 39/1/21 18/1/21
f 19/1/22 42/1/22 21/1/22
f 21/1/23 41/1/23 20/1/23
f 3/1/1 4/1/1 2/1/1
f 5/1/1 6/1/1 4/1/1
f 7/1/1 8/1/1 6/1/1
f 9/1/1 10/1/1 8/1/1
f 11/1/1 12/1/1 10/1/1
f 13/1/1 14/1/1 12/1/1
f 15/1/1 16/1/1 14/1/1
f 17/1/1 18/1/1 16/1/1
f 19/1/1 20/1/1 18/1/1
f 23/1/2 25/1/2 24/1/2
f 25/1/2 27/1/2 26/1/2
f 27/1/2 29/1/2 28/1/2
f 29/1/2 31/1/2 30/1/2
f 31/1/2 33/1/2 32/1/2
f 33/1/2 35/1/2 34/1/2
f 35/1/2 37/1/2 36/1/2
f 37/1/2 39/1/2 38/1/2
f 39/1/2 41/1/2 40/1/2
f 2/1/3 23/1/3 22/1/3
f 1/1/4 22/1/4 24/1/4
f 4/1/5 25/1/5 23/1/5
f 3/1/6 24/1/6 26/1/6
f 6/1/7 27/1/7 25/1/7
f 5/1/8 26/1/8 28/1/8
f 8/1/9 29/1/9 27/1/9
f 7/1/10 28/1/10 30/1/10
f 10/1/11 31/1/11 29/1/11
f 9/1/12 30/1/12 32/1/12
f 12/1/13 33/1/13 31/1/13
f 11/1/14 32/1/14 34/1/14
f 14/1/15 35/1/15 33/1/15
f 13/1/16 34/1/16 36/1/16
f 16/1/17 37/1/17 35/1/17
f 15/1/18 36/1/18 38/1/18
f 18/1/19 39/1/19 37/1/19
f 17/1/20 38/1/20 40/1/20
f 20/1/21 41/1/21 39/1/21
f 19/1/22 40/1/22 42/1/22
f 21/1/23 42/1/23 41/1/23
usemtl katana_guard_black
f 43/2/24 46/3/24 45/4/24
f 46/3/25 47/5/25 45/4/25
f 48/6/26 49/7/26 47/5/26
f 50/8/27 51/9/27 49/7/27
f 52/10/28 53/11/28 51/9/28
f 54/12/29 55/13/29 53/11/29
f 56/14/30 57/15/30 55/13/30
f 58/16/31 59/17/31 57/15/31
f 59/17/32 62/18/32 61/19/32
f 61/19/33 64/20/33 63/21/33
f 64/20/34 65/22/34 63/21/34
f 66/23/35 67/24/35 65/22/35
f 68/25/36 69/26/36 67/24/36
f 70/27/37 71/28/37 69/26/37
f 72/29/38 73/30/38 71/28/38
f 73/30/39 76/31/39 75/32/39
f 76/31/40 77/33/40 75/32/40
f 78/34/41 79/35/41 77/33/41
f 79/35/42 82/36/42 81/37/42
f 81/37/43 84/38/43 83/39/43
f 84/38/44 85/40/44 83/39/44
f 86/41/45 87/42/45 85/40/45
f 88/43/46 89/44/46 87/42/46
f 90/45/47 91/46/47 89/44/47
f 92/47/48 93/48/48 91/46/48
f 94/49/49 95/50/49 93/48/49
f 96/51/50 97/52/50 95/50/50
f 98/53/51 99/54/51 97/52/51
f 99/54/52 102/55/52 101/56/52
f 101/56/53 104/57/53 103/58/53
f 80/59/1 64/60/1 48/61/1
f 104/57/54 105/62/54 103/58/54
f 106/63/55 43/64/55 105/62/55
f 73/65/2 89/66/2 105/67/2
f 124/68/24 125/4/24 123/2/24
f 126/3/25 127/5/25 125/4/25
f 128/6/26 129/7/26 127/5/26
f 130/8/27 131/9/27 129/7/27
f 132/10/28 133/11/28 131/9/28
f 134/12/29 135/13/29 133/11/29
f 135/13/30 138/16/30 137/15/30
f 137/15/31 140/69/31 139/17/31
f 139/17/32 142/18/32 141/19/32
f 141/19/33 144/20/33 143/21/33
f 143/21/34 146/23/34 145/22/34
f 146/23/35 147/24/35 145/22/35
f 148/25/36 149/26/36 147/24/36
f 150/27/37 151/28/37 149/26/37
f 152/29/38 153/30/38 151/28/38
f 154/77/39 155/32/39 153/30/39
f 156/31/40 157/33/40 155/32/40
f 158/34/41 159/35/41 157/33/41
f 159/35/42 162/36/42 161/37/42
f 161/37/43 164/38/43 163/39/43
f 163/39/44 166/41/44 165/40/44
f 166/41/45 167/42/45 165/40/45
f 168/43/46 169/44/46 167/42/46
f 170/45/47 171/46/47 169/44/47
f 172/47/48 173/48/48 171/46/48
f 174/49/49 175/50/49 173/48/49
f 175/50/50 178/53/50 177/52/50
f 177/52/51 180/73/51 179/54/51
f 179/54/52 182/55/52 181/56/52
f 182/55/53 183/58/53 181/56/53
f 160/78/1 144/60/1 128/61/1
f 184/57/54 185/62/54 183/58/54
f 186/63/55 123/64/55 185/62/55
f 153/79/2 169/66/2 185/67/2
f 43/2/24 44/68/24 46/3/24
f 46/3/25 48/6/25 47/5/25
f 48/6/26 50/8/26 49/7/26
f 50/8/27 52/10/27 51/9/27
f 52/10/28 54/12/28 53/11/28
f 54/12/29 56/14/29 55/13/29
f 56/14/30 58/16/30 57/15/30
f 58/16/31 60/69/31 59/17/31
f 59/17/32 60/69/32 62/18/32
f 61/19/33 62/18/33 64/20/33
f 64/20/34 66/23/34 65/22/34
f 66/23/35 68/25/35 67/24/35
f 68/25/36 70/27/36 69/26/36
f 70/27/37 72/29/37 71/28/37
f 72/29/38 74/77/38 73/30/38
f 73/30/39 74/77/39 76/31/39
f 76/31/40 78/34/40 77/33/40
f 78/34/41 80/80/41 79/35/41
f 79/35/42 80/80/42 82/36/42
f 81/37/43 82/36/43 84/38/43
f 84/38/44 86/41/44 85/40/44
f 86/41/45 88/43/45 87/42/45
f 88/43/46 90/45/46 89/44/46
f 90/45/47 92/47/47 91/46/47
f 92/47/48 94/49/48 93/48/48
f 94/49/49 96/51/49 95/50/49
f 96/51/50 98/53/50 97/52/50
f 98/53/51 100/73/51 99/54/51
f 99/54/52 100/73/52 102/55/52
f 101/56/53 102/55/53 104/57/53
f 48/61/1 46/81/1 44/82/1
f 44/82/1 106/83/1 104/84/1
f 104/84/1 102/85/1 100/86/1
f 100/86/1 98/87/1 96/88/1
f 96/88/1 94/89/1 92/90/1
f 92/90/1 90/91/1 88/92/1
f 88/92/1 86/93/1 84/94/1
f 84/94/1 82/95/1 80/59/1
f 80/59/1 78/96/1 76/97/1
f 76/97/1 74/98/1 72/99/1
f 72/99/1 70/100/1 68/101/1
f 68/101/1 66/102/1 64/60/1
f 64/60/1 62/103/1 60/72/1
f 60/72/1 58/104/1 56/105/1
f 56/105/1 54/106/1 52/107/1
f 52/107/1 50/108/1 48/61/1
f 48/61/1 44/82/1 104/84/1
f 104/84/1 100/86/1 96/88/1
f 96/88/1 92/90/1 88/92/1
f 88/92/1 84/94/1 80/59/1
f 80/59/1 76/97/1 72/99/1
f 72/99/1 68/101/1 64/60/1
f 64/60/1 60/72/1 56/105/1
f 56/105/1 52/107/1 48/61/1
f 48/61/1 104/84/1 96/88/1
f 96/88/1 88/92/1 80/59/1
f 80/59/1 72/99/1 64/60/1
f 64/60/1 56/105/1 48/61/1
f 48/61/1 96/88/1 80/59/1
f 104/57/54 106/63/54 105/62/54
f 106/63/55 44/109/55 43/64/55
f 105/67/2 43/110/2 45/111/2
f 45/111/2 47/112/2 49/113/2
f 49/113/2 51/114/2 53/115/2
f 53/115/2 55/116/2 57/117/2
f 57/117/2 59/118/2 61/119/2
f 61/119/2 63/120/2 65/121/2
f 65/121/2 67/122/2 69/123/2
f 69/123/2 71/124/2 73/65/2
f 73/65/2 75/125/2 77/126/2
f 77/126/2 79/127/2 81/128/2
f 81/128/2 83/129/2 85/130/2
f 85/130/2 87/131/2 89/66/2
f 89/66/2 91/132/2 93/133/2
f 93/133/2 95/134/2 97/135/2
f 97/135/2 99/76/2 101/136/2
f 101/136/2 103/137/2 105/67/2
f 105/67/2 45/111/2 49/113/2
f 49/113/2 53/115/2 57/117/2
f 57/117/2 61/119/2 65/121/2
f 65/121/2 69/123/2 73/65/2
f 73/65/2 77/126/2 81/128/2
f 81/128/2 85/130/2 89/66/2
f 89/66/2 93/133/2 97/135/2
f 97/135/2 101/136/2 105/67/2
f 105/67/2 49/113/2 57/117/2
f 57/117/2 65/121/2 73/65/2
f 73/65/2 81/128/2 89/66/2
f 89/66/2 97/135/2 105/67/2
f 105/67/2 57/117/2 73/65/2
f 124/68/24 126/3/24 125/4/24
f 126/3/25 128/6/25 127/5/25
f 128/6/26 130/8/26 129/7/26
f 130/8/27 132/10/27 131/9/27
f 132/10/28 134/12/28 133/11/28
f 134/12/29 136/14/29 135/13/29
f 135/13/30 136/14/30 138/16/30
f 137/15/31 138/16/31 140/69/31
f 139/17/32 140/69/32 142/18/32
f 141/19/33 142/18/33 144/20/33
f 143/21/34 144/20/34 146/23/34
f 146/23/35 148/25/35 147/24/35
f 148/25/36 150/27/36 149/26/36
f 150/27/37 152/29/37 151/28/37
f 152/29/38 154/77/38 153/30/38
f 154/77/39 156/31/39 155/32/39
f 156/31/40 158/34/40 157/33/40
f 158/34/41 160/80/41 159/35/41
f 159/35/42 160/80/42 162/36/42
f 161/37/43 162/36/43 164/38/43
f 163/39/44 164/38/44 166/41/44
f 166/41/45 168/43/45 167/42/45
f 168/43/46 170/45/46 169/44/46
f 170/45/47 172/47/47 171/46/47
f 172/47/48 174/49/48 173/48/48
f 174/49/49 176/51/49 175/50/49
f 175/50/50 176/51/50 178/53/50
f 177/52/51 178/53/51 180/73/51
f 179/54/52 180/73/52 182/55/52
f 182/55/53 184/57/53 183/58/53
f 128/61/1 126/81/1 124/82/1
f 124/82/1 186/83/1 184/84/1
f 184/84/1 182/85/1 180/86/1
f 180/86/1 178/87/1 176/142/1
f 176/142/1 174/143/1 172/90/1
f 172/90/1 170/144/1 168/145/1
f 168/145/1 166/93/1 164/94/1
f 164/94/1 162/95/1 160/78/1
f 160/78/1 158/146/1 156/97/1
f 156/97/1 154/147/1 152/148/1
f 152/148/1 150/100/1 148/101/1
f 148/101/1 146/102/1 144/60/1
f 144/60/1 142/103/1 140/72/1
f 140/72/1 138/104/1 136/105/1
f 136/105/1 134/106/1 132/107/1
f 132/107/1 130/108/1 128/61/1
f 128/61/1 124/82/1 184/84/1
f 184/84/1 180/86/1 176/142/1
f 176/142/1 172/90/1 168/145/1
f 168/145/1 164/94/1 160/78/1
f 160/78/1 156/97/1 152/148/1
f 152/148/1 148/101/1 144/60/1
f 144/60/1 140/72/1 136/105/1
f 136/105/1 132/107/1 128/61/1
f 128/61/1 184/84/1 176/142/1
f 176/142/1 168/145/1 160/78/1
f 160/78/1 152/148/1 144/60/1
f 144/60/1 136/105/1 128/61/1
f 128/61/1 176/142/1 160/78/1
f 184/57/54 186/63/54 185/62/54
f 186/63/55 124/109/55 123/64/55
f 185/67/2 123/110/2 125/111/2
f 125/111/2 127/112/2 129/113/2
f 129/113/2 131/114/2 133/115/2
f 133/115/2 135/116/2 137/117/2
f 137/117/2 139/118/2 141/119/2
f 141/119/2 143/120/2 145/121/2
f 145/121/2 147/122/2 149/123/2
f 149/123/2 151/149/2 153/79/2
f 153/79/2 155/125/2 157/150/2
f 157/150/2 159/151/2 161/128/2
f 161/128/2 163/129/2 165/130/2
f 165/130/2 167/131/2 169/66/2
f 169/66/2 171/132/2 173/133/2
f 173/133/2 175/134/2 177/135/2
f 177/135/2 179/76/2 181/136/2
f 181/136/2 183/137/2 185/67/2
f 185/67/2 125/111/2 129/113/2
f 129/113/2 133/115/2 137/117/2
f 137/117/2 141/119/2 145/121/2
f 145/121/2 149/123/2 153/79/2
f 153/79/2 157/150/2 161/128/2
f 161/128/2 165/130/2 169/66/2
f 169/66/2 173/133/2 177/135/2
f 177/135/2 181/136/2 185/67/2
f 185/67/2 129/113/2 137/117/2
f 137/117/2 145/121/2 153/79/2
f 153/79/2 161/128/2 169/66/2
f 169/66/2 177/135/2 185/67/2
f 185/67/2 137/117/2 153/79/2
usemtl katana_handle_wrap
f 108/68/56 109/9/56 107/2/56
f 110/10/57 111/17/57 109/9/57
f 112/69/58 113/24/58 111/17/58
f 114/25/59 115/32/59 113/24/59
f 116/31/60 117/39/60 115/32/60
f 118/38/61 119/46/61 117/39/61
f 120/70/62 116/71/62 112/72/62
f 120/47/63 121/54/63 119/46/63
f 122/73/64 107/64/64 121/54/64
f 113/74/3 117/75/3 121/76/3
f 108/68/56 110/10/56 109/9/56
f 110/10/57 112/69/57 111/17/57
f 112/69/58 114/25/58 113/24/58
f 114/25/59 116/31/59 115/32/59
f 116/31/60 118/38/60 117/39/60
f 118/38/61 120/47/61 119/46/61
f 112/72/62 110/107/62 108/82/62
f 108/82/62 122/138/62 120/70/62
f 120/70/62 118/139/62 116/71/62
f 116/71/62 114/140/62 112/72/62
f 112/72/62 108/82/62 120/70/62
f 120/47/63 122/73/63 121/54/63
f 122/73/64 108/109/64 107/64/64
f 121/76/3 107/110/3 109/114/3
f 109/114/3 111/118/3 113/74/3
f 113/74/3 115/141/3 117/75/3
f 117/75/3 119/132/3 121/76/3
f 121/76/3 109/114/3 113/74/3
